<svg xmlns="http://www.w3.org/2000/svg" version="1.1" xmlns:xlink="http://www.w3.org/1999/xlink" xmlns:svgjs="http://svgjs.dev/svgjs" width="128" height="128" viewBox="0 0 128 128"><g transform="matrix(0.8046875,0,0,0.8046875,12.760752631578946,12.760752631578946)"><svg viewBox="0 0 95 95" data-background-color="#ffffff" preserveAspectRatio="xMidYMid meet" height="128" width="128" xmlns="http://www.w3.org/2000/svg" xmlns:xlink="http://www.w3.org/1999/xlink"><g id="tight-bounds" transform="matrix(1,0,0,1,-0.24049999999999727,-0.24049999999999727)"><svg viewBox="0 0 95.481 95.481" height="95.481" width="95.481"><g><svg viewBox="0 0 95.481 95.481" height="95.481" width="95.481"><g><svg viewBox="0 0 95.481 95.481" height="95.481" width="95.481"><g id="textblocktransform"><svg viewBox="0 0 95.481 95.481" height="95.481" width="95.481" id="textblock"><g><svg viewBox="0 0 95.481 95.481" height="95.481" width="95.481"><g><svg viewBox="0 0 95.481 95.481" height="95.481" width="95.481"><g><svg xmlns="http://www.w3.org/2000/svg" xmlns:xlink="http://www.w3.org/1999/xlink" version="1.1" x="0" y="0" viewBox="1 1 28 28" style="enable-background:new 0 0 30 30;" xml:space="preserve" height="95.481" width="95.481" class="icon-icon-0" data-fill-palette-color="accent" id="icon-0"><path d="M16 1h-2C6.832 1 1 6.832 1 14c0 0.552 0.447 1 1 1h26c0.553 0 1-0.448 1-1C29 6.832 23.168 1 16 1zM3.045 13C3.552 7.401 8.271 3 14 3h2c5.729 0 10.448 4.401 10.955 10H3.045z" fill="#ec644b" data-fill-palette-color="accent"></path><path d="M28 21h-4c-0.217 0-0.427 0.07-0.6 0.2L20 23.75l-3.4-2.55C16.427 21.07 16.217 21 16 21H2c-0.553 0-1 0.447-1 1v2c0 2.757 2.243 5 5 5h18c2.757 0 5-2.243 5-5v-2C29 21.447 28.553 21 28 21zM27 24c0 1.654-1.346 3-3 3H6c-1.654 0-3-1.346-3-3v-1h12.667l3.733 2.8c0.355 0.268 0.844 0.268 1.199 0l3.733-2.8H27V24z" fill="#ec644b" data-fill-palette-color="accent"></path><path d="M28 17H2c-0.553 0-1 0.447-1 1s0.447 1 1 1h26c0.553 0 1-0.447 1-1S28.553 17 28 17z" fill="#ec644b" data-fill-palette-color="accent"></path><path d="M10 7C9.447 7 9 7.448 9 8v1c0 0.552 0.447 1 1 1s1-0.448 1-1V8C11 7.448 10.553 7 10 7z" fill="#ec644b" data-fill-palette-color="accent"></path><path d="M15 7c-0.553 0-1 0.448-1 1v1c0 0.552 0.447 1 1 1s1-0.448 1-1V8C16 7.448 15.553 7 15 7z" fill="#ec644b" data-fill-palette-color="accent"></path><path d="M20 7c-0.553 0-1 0.448-1 1v1c0 0.552 0.447 1 1 1s1-0.448 1-1V8C21 7.448 20.553 7 20 7z" fill="#ec644b" data-fill-palette-color="accent"></path></svg></g></svg></g></svg></g></svg></g></svg></g></svg></g><defs></defs></svg><rect width="95.481" height="95.481" fill="none" stroke="none" visibility="hidden"></rect></g></svg></g></svg>